<?xml version="1.0" encoding="UTF-8"?>
<svg width="700pt" height="700pt" version="1.1" viewBox="0 0 700 700" xmlns="http://www.w3.org/2000/svg" xmlns:xlink="http://www.w3.org/1999/xlink">
 <defs>
  <symbol id="v" overflow="visible">
   <path d="m1.8281-0.10938c-0.09375 0.054688-0.19531 0.089844-0.29688 0.10938-0.09375 0.019531-0.19922 0.03125-0.3125 0.03125-0.33594 0-0.60156-0.085938-0.79688-0.26562-0.1875-0.1875-0.28125-0.44141-0.28125-0.76562 0-0.3125 0.09375-0.5625 0.28125-0.75 0.19531-0.1875 0.46094-0.28125 0.79688-0.28125 0.11328 0 0.21875 0.015625 0.3125 0.046875 0.10156 0.023437 0.20312 0.058594 0.29688 0.10938v0.40625c-0.09375-0.0625-0.1875-0.10938-0.28125-0.14062s-0.19531-0.046875-0.29688-0.046875c-0.17969 0-0.32031 0.0625-0.42188 0.1875-0.10547 0.11719-0.15625 0.27344-0.15625 0.46875 0 0.21094 0.050781 0.375 0.15625 0.5 0.10156 0.11719 0.24219 0.17188 0.42188 0.17188 0.10156 0 0.20312-0.015625 0.29688-0.046875s0.1875-0.078125 0.28125-0.14062z"/>
  </symbol>
  <symbol id="f" overflow="visible">
   <path d="m1.3438-1.0938c-0.042969-0.019531-0.085938-0.03125-0.125-0.03125-0.042969-0.007812-0.085938-0.015625-0.125-0.015625-0.125 0-0.22656 0.042969-0.29688 0.125-0.0625 0.074219-0.09375 0.18359-0.09375 0.32812v0.6875h-0.46875v-1.5h0.46875v0.25c0.0625-0.09375 0.12891-0.16016 0.20312-0.20312 0.082031-0.050781 0.17969-0.078125 0.29688-0.078125h0.046875c0.019531 0 0.050781 0.007812 0.09375 0.015625z"/>
  </symbol>
  <symbol id="a" overflow="visible">
   <path d="m1.7188-0.75v0.14062h-1.1094c0.007813 0.10547 0.046875 0.1875 0.10938 0.25 0.070312 0.054687 0.17188 0.078125 0.29688 0.078125 0.10156 0 0.20703-0.015625 0.3125-0.046875 0.10156-0.03125 0.21094-0.070313 0.32812-0.125v0.35938c-0.11719 0.042969-0.23047 0.074219-0.34375 0.09375-0.11719 0.019531-0.23047 0.03125-0.34375 0.03125-0.27344 0-0.48047-0.066406-0.625-0.20312-0.14844-0.13281-0.21875-0.32812-0.21875-0.57812 0-0.23828 0.070312-0.42578 0.21875-0.5625 0.14453-0.14453 0.34766-0.21875 0.60938-0.21875 0.22656 0 0.41016 0.074219 0.54688 0.21875 0.14453 0.13672 0.21875 0.32422 0.21875 0.5625zm-0.48438-0.15625c0-0.09375-0.027344-0.16406-0.078125-0.21875-0.054688-0.0625-0.125-0.09375-0.21875-0.09375-0.085938 0-0.15625 0.027344-0.21875 0.078125-0.0625 0.054687-0.10156 0.13281-0.10938 0.23438z"/>
  </symbol>
  <symbol id="e" overflow="visible">
   <path d="m0.90625-0.67188c-0.10547 0-0.18359 0.015625-0.23438 0.046875-0.054687 0.03125-0.078125 0.085938-0.078125 0.15625 0 0.0625 0.019531 0.10938 0.0625 0.14062 0.039062 0.03125 0.097656 0.046875 0.17188 0.046875 0.09375 0 0.16406-0.03125 0.21875-0.09375 0.0625-0.0625 0.09375-0.14453 0.09375-0.25v-0.046875zm0.71875-0.1875v0.85938h-0.48438v-0.21875c-0.0625 0.09375-0.13672 0.16406-0.21875 0.20312-0.074219 0.03125-0.16797 0.046875-0.28125 0.046875-0.15625 0-0.28125-0.039062-0.375-0.125-0.09375-0.09375-0.14062-0.21094-0.14062-0.35938 0-0.17578 0.054688-0.30078 0.17188-0.375 0.125-0.082031 0.3125-0.125 0.5625-0.125h0.28125v-0.046875c0-0.070312-0.03125-0.125-0.09375-0.15625-0.054687-0.039062-0.14062-0.0625-0.26562-0.0625-0.10547 0-0.20312 0.011719-0.29688 0.03125-0.085937 0.023438-0.16406 0.054688-0.23438 0.09375v-0.35938c0.10156-0.03125 0.20703-0.050781 0.3125-0.0625 0.10156-0.007813 0.20312-0.015625 0.29688-0.015625 0.26953 0 0.46094 0.054688 0.57812 0.15625 0.125 0.10547 0.1875 0.27734 0.1875 0.51562z"/>
  </symbol>
  <symbol id="d" overflow="visible">
   <path d="m0.75-1.9219v0.42188h0.5v0.34375h-0.5v0.64062c0 0.0625 0.007812 0.10938 0.03125 0.14062 0.03125 0.023438 0.085938 0.03125 0.17188 0.03125h0.25v0.34375h-0.40625c-0.1875 0-0.32422-0.035156-0.40625-0.10938-0.074219-0.082031-0.10938-0.21875-0.10938-0.40625v-0.64062h-0.25v-0.34375h0.25v-0.42188z"/>
  </symbol>
  <symbol id="k" overflow="visible">
   <path d="m1.25-1.2812v-0.79688h0.48438v2.0781h-0.48438v-0.21875c-0.074219 0.09375-0.15234 0.16406-0.23438 0.20312-0.074219 0.03125-0.16406 0.046875-0.26562 0.046875-0.17969 0-0.32812-0.070312-0.45312-0.21875-0.11719-0.14453-0.17188-0.33203-0.17188-0.5625 0-0.22656 0.054688-0.41406 0.17188-0.5625 0.125-0.14453 0.27344-0.21875 0.45312-0.21875 0.10156 0 0.19141 0.023438 0.26562 0.0625 0.082031 0.042969 0.16016 0.10547 0.23438 0.1875zm-0.3125 0.96875c0.09375 0 0.16406-0.035156 0.21875-0.10938 0.0625-0.070313 0.09375-0.17969 0.09375-0.32812 0-0.13281-0.03125-0.23828-0.09375-0.3125-0.054688-0.082031-0.125-0.125-0.21875-0.125-0.10547 0-0.18359 0.042969-0.23438 0.125-0.054687 0.074219-0.078125 0.17969-0.078125 0.3125 0 0.14844 0.023438 0.25781 0.078125 0.32812 0.050781 0.074219 0.12891 0.10938 0.23438 0.10938z"/>
  </symbol>
  <symbol id="j" overflow="visible">
   <path d="m1.0312-0.3125c0.09375 0 0.16406-0.035156 0.21875-0.10938 0.0625-0.070313 0.09375-0.17969 0.09375-0.32812 0-0.13281-0.03125-0.23828-0.09375-0.3125-0.054688-0.082031-0.125-0.125-0.21875-0.125-0.10547 0-0.1875 0.042969-0.25 0.125-0.054688 0.074219-0.078125 0.17969-0.078125 0.3125 0 0.14844 0.023437 0.25781 0.078125 0.32812 0.0625 0.074219 0.14453 0.10938 0.25 0.10938zm-0.32812-0.96875c0.070313-0.082031 0.14453-0.14453 0.21875-0.1875 0.082031-0.039062 0.17578-0.0625 0.28125-0.0625 0.1875 0 0.33594 0.074219 0.45312 0.21875 0.11328 0.14844 0.17188 0.33594 0.17188 0.5625 0 0.23047-0.058594 0.41797-0.17188 0.5625-0.11719 0.14844-0.26562 0.21875-0.45312 0.21875-0.10547 0-0.19922-0.015625-0.28125-0.046875-0.074219-0.039062-0.14844-0.10938-0.21875-0.20312v0.21875h-0.46875v-2.0781h0.46875z"/>
  </symbol>
  <symbol id="i" overflow="visible">
   <path d="m0.03125-1.5h0.48438l0.39062 1.0156 0.34375-1.0156h0.48438l-0.625 1.6406c-0.0625 0.16406-0.14062 0.28125-0.23438 0.34375-0.085938 0.070313-0.19531 0.10938-0.32812 0.10938h-0.26562v-0.3125h0.14062c0.082031 0 0.14062-0.015625 0.17188-0.046875 0.039062-0.023437 0.070312-0.070313 0.09375-0.14062l0.015625-0.03125z"/>
  </symbol>
  <symbol id="c" overflow="visible">
   <path d="m1.3906-1.4531v0.375c-0.09375-0.050781-0.19531-0.085937-0.29688-0.10938-0.09375-0.019531-0.18359-0.03125-0.26562-0.03125-0.085937 0-0.15234 0.015625-0.20312 0.046875-0.042969 0.023437-0.0625 0.054687-0.0625 0.09375 0 0.042969 0.015625 0.074219 0.046875 0.09375 0.03125 0.023437 0.09375 0.039063 0.1875 0.046875l0.078125 0.015625c0.25 0.03125 0.41406 0.085937 0.5 0.15625 0.082031 0.0625 0.125 0.17188 0.125 0.32812s-0.0625 0.27734-0.1875 0.35938c-0.11719 0.074219-0.28906 0.10938-0.51562 0.10938-0.10547 0-0.21094-0.011719-0.3125-0.03125-0.10547-0.0078125-0.21094-0.03125-0.3125-0.0625v-0.35938c0.09375 0.054687 0.1875 0.089844 0.28125 0.10938 0.10156 0.023438 0.20703 0.03125 0.3125 0.03125 0.09375 0 0.16016-0.007812 0.20312-0.03125 0.050781-0.03125 0.078125-0.070312 0.078125-0.125 0-0.039062-0.015625-0.070312-0.046875-0.09375-0.03125-0.019531-0.10156-0.035156-0.20312-0.046875l-0.078125-0.015625c-0.21875-0.019531-0.37109-0.066406-0.45312-0.14062-0.085937-0.070313-0.125-0.17969-0.125-0.32812 0-0.15625 0.050781-0.26953 0.15625-0.34375 0.11328-0.082031 0.28125-0.125 0.5-0.125 0.09375 0 0.1875 0.011719 0.28125 0.03125 0.10156 0.011719 0.20703 0.027344 0.3125 0.046875z"/>
  </symbol>
  <symbol id="b" overflow="visible">
   <path d="m1.7344-0.90625v0.90625h-0.48438v-0.6875c0-0.13281-0.007812-0.22266-0.015625-0.26562 0-0.050781-0.007813-0.09375-0.015625-0.125-0.023438-0.03125-0.046875-0.050781-0.078125-0.0625-0.03125-0.019531-0.070313-0.03125-0.10938-0.03125-0.10547 0-0.1875 0.042969-0.25 0.125-0.054688 0.074219-0.078125 0.17969-0.078125 0.3125v0.73438h-0.46875v-2.0781h0.46875v0.79688c0.070313-0.082031 0.14844-0.14453 0.23438-0.1875 0.082031-0.039062 0.17188-0.0625 0.26562-0.0625 0.17578 0 0.30469 0.054688 0.39062 0.15625 0.09375 0.10547 0.14062 0.26172 0.14062 0.46875z"/>
  </symbol>
  <symbol id="h" overflow="visible">
   <path d="m1.7344-0.90625v0.90625h-0.48438v-0.70312c0-0.125-0.007812-0.20703-0.015625-0.25 0-0.050781-0.007813-0.09375-0.015625-0.125-0.023438-0.03125-0.046875-0.050781-0.078125-0.0625-0.03125-0.019531-0.070313-0.03125-0.10938-0.03125-0.10547 0-0.1875 0.042969-0.25 0.125-0.054688 0.074219-0.078125 0.17969-0.078125 0.3125v0.73438h-0.46875v-1.5h0.46875v0.21875c0.070313-0.082031 0.14844-0.14453 0.23438-0.1875 0.082031-0.039062 0.17188-0.0625 0.26562-0.0625 0.17578 0 0.30469 0.054688 0.39062 0.15625 0.09375 0.10547 0.14062 0.26172 0.14062 0.46875z"/>
  </symbol>
  <symbol id="u" overflow="visible">
   <path d="m0.23438-2.0781h0.46875v1.125l0.54688-0.54688h0.5625l-0.73438 0.6875 0.79688 0.8125h-0.57812l-0.59375-0.625v0.625h-0.46875z"/>
  </symbol>
  <symbol id="t" overflow="visible">
   <path d="m0.23438-1.5h0.46875v1.5h-0.46875zm0-0.57812h0.46875v0.39062h-0.46875z"/>
  </symbol>
  <symbol id="s" overflow="visible">
   <path d="m1.25-0.25c-0.074219 0.085938-0.15234 0.14844-0.23438 0.1875-0.074219 0.042969-0.16406 0.0625-0.26562 0.0625-0.17969 0-0.32812-0.070312-0.45312-0.21875-0.11719-0.14453-0.17188-0.32812-0.17188-0.54688s0.054688-0.39844 0.17188-0.54688c0.125-0.14453 0.27344-0.21875 0.45312-0.21875 0.10156 0 0.19141 0.023438 0.26562 0.0625 0.082031 0.042969 0.16016 0.10547 0.23438 0.1875v-0.21875h0.48438v1.3438c0 0.23828-0.078125 0.42188-0.23438 0.54688-0.15625 0.13281-0.375 0.20312-0.65625 0.20312-0.09375 0-0.1875-0.011719-0.28125-0.03125-0.085938-0.011719-0.16797-0.03125-0.25-0.0625v-0.375c0.082031 0.050781 0.16016 0.085938 0.23438 0.10938 0.082031 0.03125 0.16406 0.046875 0.25 0.046875 0.15625 0 0.26953-0.039062 0.34375-0.10938 0.070313-0.074219 0.10938-0.17969 0.10938-0.32812zm-0.3125-0.9375c-0.10547 0-0.18359 0.039062-0.23438 0.10938-0.054687 0.074219-0.078125 0.17969-0.078125 0.3125 0 0.13672 0.023438 0.24219 0.078125 0.3125 0.050781 0.074219 0.12891 0.10938 0.23438 0.10938 0.09375 0 0.16406-0.035156 0.21875-0.10938 0.0625-0.070313 0.09375-0.17578 0.09375-0.3125 0-0.13281-0.03125-0.23828-0.09375-0.3125-0.054688-0.070313-0.125-0.10938-0.21875-0.10938z"/>
  </symbol>
  <symbol id="r" overflow="visible">
   <path d="m1.2188-2.0781v0.3125h-0.26562c-0.074219 0-0.125 0.015625-0.15625 0.046875-0.023437 0.023438-0.03125 0.0625-0.03125 0.125v0.09375h0.40625v0.34375h-0.40625v1.1562h-0.46875v-1.1562h-0.25v-0.34375h0.25v-0.09375c0-0.16406 0.039063-0.28516 0.125-0.35938 0.09375-0.082031 0.23438-0.125 0.42188-0.125z"/>
  </symbol>
  <symbol id="g" overflow="visible">
   <path d="m0.9375-1.1875c-0.10547 0-0.1875 0.039062-0.25 0.10938-0.054688 0.074219-0.078125 0.18359-0.078125 0.32812 0 0.14844 0.023437 0.26172 0.078125 0.34375 0.0625 0.074219 0.14453 0.10938 0.25 0.10938 0.10156 0 0.17969-0.035156 0.23438-0.10938 0.0625-0.082031 0.09375-0.19531 0.09375-0.34375 0-0.14453-0.03125-0.25391-0.09375-0.32812-0.054687-0.070313-0.13281-0.10938-0.23438-0.10938zm0-0.34375c0.25781 0 0.46094 0.074219 0.60938 0.21875 0.14453 0.13672 0.21875 0.32422 0.21875 0.5625 0 0.25-0.074219 0.44531-0.21875 0.57812-0.14844 0.13672-0.35156 0.20312-0.60938 0.20312-0.26172 0-0.46484-0.066406-0.60938-0.20312-0.13672-0.13281-0.20312-0.32812-0.20312-0.57812 0-0.23828 0.066406-0.42578 0.20312-0.5625 0.14453-0.14453 0.34766-0.21875 0.60938-0.21875z"/>
  </symbol>
  <symbol id="q" overflow="visible">
   <path d="m1.6094-1.25c0.0625-0.09375 0.13281-0.16016 0.21875-0.20312 0.082031-0.050781 0.17578-0.078125 0.28125-0.078125 0.16406 0 0.29688 0.054688 0.39062 0.15625 0.09375 0.10547 0.14062 0.26172 0.14062 0.46875v0.90625h-0.48438v-0.78125-0.03125-0.0625c0-0.10156-0.015625-0.17578-0.046875-0.21875-0.03125-0.050781-0.085937-0.078125-0.15625-0.078125-0.085937 0-0.15234 0.039063-0.20312 0.10938-0.054688 0.074219-0.078125 0.18359-0.078125 0.32812v0.73438h-0.48438v-0.78125c0-0.16406-0.015625-0.26953-0.046875-0.3125-0.023437-0.050781-0.070313-0.078125-0.14062-0.078125-0.09375 0-0.16797 0.042969-0.21875 0.125-0.054688 0.074219-0.078125 0.17969-0.078125 0.3125v0.73438h-0.46875v-1.5h0.46875v0.21875c0.0625-0.082031 0.12891-0.14453 0.20312-0.1875 0.082031-0.039062 0.16406-0.0625 0.25-0.0625 0.10156 0 0.19141 0.027344 0.26562 0.078125 0.082031 0.054687 0.14453 0.12109 0.1875 0.20312z"/>
  </symbol>
  <symbol id="p" overflow="visible">
   <path d="m0.25-2h0.57812l0.71875 1.375v-1.375h0.48438v2h-0.5625l-0.73438-1.375v1.375h-0.48438z"/>
  </symbol>
  <symbol id="o" overflow="visible">
   <path d="m0.21875-0.57812v-0.92188h0.46875v0.15625 0.3125 0.23438 0.26562c0.007812 0.054688 0.023438 0.089844 0.046875 0.10938 0.019531 0.03125 0.046875 0.058594 0.078125 0.078125 0.03125 0.011719 0.066406 0.015625 0.10938 0.015625 0.09375 0 0.16406-0.035156 0.21875-0.10938 0.0625-0.070312 0.09375-0.17578 0.09375-0.3125v-0.75h0.48438v1.5h-0.48438v-0.21875c-0.074219 0.09375-0.15234 0.16406-0.23438 0.20312-0.074219 0.03125-0.15625 0.046875-0.25 0.046875-0.17969 0-0.3125-0.050781-0.40625-0.15625-0.085938-0.10156-0.125-0.25391-0.125-0.45312z"/>
  </symbol>
  <symbol id="n" overflow="visible">
   <path d="m0.25-2h0.85938c0.25 0 0.44141 0.058594 0.57812 0.17188 0.13281 0.11719 0.20312 0.27734 0.20312 0.48438 0 0.21094-0.070313 0.37109-0.20312 0.48438-0.13672 0.11719-0.32812 0.17188-0.57812 0.17188h-0.34375v0.6875h-0.51562zm0.51562 0.375v0.5625h0.28125c0.10156 0 0.17969-0.019531 0.23438-0.0625 0.050781-0.050781 0.078125-0.125 0.078125-0.21875s-0.027344-0.16016-0.078125-0.20312c-0.054688-0.050781-0.13281-0.078125-0.23438-0.078125z"/>
  </symbol>
  <symbol id="m" overflow="visible">
   <path d="m0.23438-1.5h0.46875v1.4688c0 0.20703-0.046875 0.36328-0.14062 0.46875-0.09375 0.10156-0.23438 0.15625-0.42188 0.15625h-0.23438v-0.3125h0.078125c0.09375 0 0.15625-0.023438 0.1875-0.0625 0.039063-0.042969 0.0625-0.125 0.0625-0.25zm0-0.57812h0.46875v0.39062h-0.46875z"/>
  </symbol>
  <symbol id="l" overflow="visible">
   <path d="m1.4375-1.4531v0.39062c-0.0625-0.039062-0.13281-0.070312-0.20312-0.09375-0.0625-0.019531-0.13281-0.03125-0.20312-0.03125-0.125 0-0.23047 0.042969-0.3125 0.125-0.074219 0.074219-0.10938 0.17969-0.10938 0.3125 0 0.14844 0.035156 0.26172 0.10938 0.34375 0.082031 0.074219 0.1875 0.10938 0.3125 0.10938 0.082031 0 0.15625-0.007813 0.21875-0.03125 0.070312-0.03125 0.13281-0.066406 0.1875-0.10938v0.39062c-0.074219 0.03125-0.15234 0.050781-0.23438 0.0625-0.074219 0.0078125-0.14844 0.015625-0.21875 0.015625-0.27344 0-0.48438-0.066406-0.64062-0.20312-0.14844-0.13281-0.21875-0.32812-0.21875-0.57812 0-0.23828 0.070312-0.42578 0.21875-0.5625 0.15625-0.14453 0.36719-0.21875 0.64062-0.21875 0.070313 0 0.14453 0.011719 0.21875 0.03125 0.082031 0.011719 0.16016 0.027344 0.23438 0.046875z"/>
  </symbol>
 </defs>
 <g>
  <path d="m576.02 421.59v16.57c0 5.6328 0.38281 11.375-0.10938 17.008 0.21875-1.4766 0.38281-2.8984 0.60156-4.375-0.16406 1.2031-0.49219 2.3516-0.92969 3.4453 0.54687-1.3125 1.0938-2.625 1.6406-3.9375-0.27344 0.65625-0.65625 1.2578-0.98437 1.8594-1.2031 2.4062 2.625-3.1172 0.82031-1.1484-1.75 1.9141 3.5547-2.0781 1.1484-0.82031-0.60156 0.32812-1.2031 0.71094-1.8594 0.98438l3.9375-1.6406c-1.1484 0.4375-2.2422 0.76562-3.4453 0.92969 1.4766-0.21875 2.8984-0.38281 4.375-0.60156-6.2891 0.54688-12.797 0.10938-19.141 0.10938h-43.039-98.164-22.641v32.812c11.047-0.27344 21.109-5.7969 26.852-15.258 3.1719-5.1953 4.375-11.156 4.375-17.172v-22.094c0-21.273-0.4375-42.766-8.4766-62.836-6.0156-15.039-14.438-28.547-26.086-39.922-1.0938 8.5859-2.1875 17.172-3.3359 25.758 1.0391-0.49219 2.0781-0.92969 3.1172-1.3672l-3.9375 1.6406c13.453-5.6875 27.672-9.0234 42.109-10.992-1.4766 0.21875-2.8984 0.38281-4.375 0.60156 21.711-2.8438 44.023-2.8438 65.734 0-1.4766-0.21875-2.8984-0.38281-4.375-0.60156 14.328 1.9141 28.438 5.25 41.781 10.883l-3.9375-1.6406c5.7422 2.4609 11.266 5.25 16.516 8.6406 1.2578 0.82031 2.4609 1.6406 3.7188 2.4609 0.71094 0.49219 4.375 3.2812 1.75 1.2578-2.3516-1.8047-0.54687-0.38281 0 0.054687 0.54688 0.4375 1.0938 0.875 1.6406 1.3672 1.0938 0.92969 2.1328 1.8594 3.1172 2.8438 1.8594 1.75 3.6641 3.6094 5.3594 5.5234 0.92969 1.0391 1.8047 2.1875 2.6797 3.2266-3.8828-4.5938-0.49219-0.60156 0.38281 0.65625 3.1172 4.5391 5.7422 9.4062 7.9297 14.492-0.54688-1.3125-1.0938-2.625-1.6406-3.9375 3.2266 7.7109 5.25 15.75 6.3984 24.008-0.21875-1.4766-0.38281-2.8984-0.60156-4.375 0.76562 5.1953 1.0391 10.391 1.0938 15.586 0.054687 8.5859 7.5469 16.789 16.406 16.406 8.8594-0.38281 16.461-7.2188 16.406-16.406-0.054688-18.977-3.8828-37.953-12.906-54.742-8.1484-15.094-20.617-27.508-35-36.75-15.695-10.008-34.016-16.188-52.227-19.523-21.055-3.8828-42.656-5.0859-64.039-3.7188-24.117 1.4766-47.578 6.125-69.617 16.188-4.5391 2.0781-7.2188 7.3281-7.8203 11.977-0.65625 5.0859 0.76563 10.117 4.5391 13.781 2.1875 2.1328 4.3203 4.375 6.2891 6.7266 0.54687 0.65625 1.0938 1.3125 1.6406 1.9688 1.75 2.0781-2.4609-3.3359-0.76562-0.98438 0.875 1.2031 1.75 2.4062 2.5703 3.6094 3.5547 5.1953 6.5078 10.773 8.9688 16.57l-1.6406-3.9375c3.6641 8.8594 6.0156 18.156 7.2734 27.617-0.21875-1.4766-0.38281-2.8984-0.60156-4.375 1.3672 10.719 1.1484 21.492 1.1484 32.32v16.078c0 3.1172 0.21875 6.3984-0.16406 9.5156 0.21875-1.4766 0.38281-2.8984 0.60156-4.375-0.21875 1.2031-0.54688 2.3516-0.98438 3.5 0.54688-1.3125 1.0938-2.625 1.6406-3.9375-0.10938 0.21875-1.2031 2.5703-1.3672 2.5156-0.10938-0.054687 3.2812-3.6641 0.76562-1.1484-1.5312 1.5312-1.75 0.38281 1.1484-0.76563-0.875 0.32813-1.6406 0.98438-2.5156 1.3672l3.9375-1.6406c-1.1484 0.4375-2.2969 0.76562-3.5 0.98438 1.4766-0.21875 2.8984-0.38281 4.375-0.60156-0.76563 0.10937-1.4766 0.16406-2.2422 0.16406-8.5859 0.21875-16.789 7.3828-16.406 16.406 0.38281 8.9141 7.2188 16.406 16.406 16.406h26.961 60.266 61.742c10.719 0 21.492 0.10938 32.211 0 7.8203-0.054688 15.422-2.9531 20.945-8.5312 6.125-6.125 8.5312-14.164 8.5312-22.586v-27.672-2.4062c0-8.5859-7.5469-16.789-16.406-16.406-9.0781 0.38281-16.57 7.2188-16.57 16.406z"/>
  <path d="m515.48 215.52c0 3.2812-0.21875 6.5625-0.65625 9.8438 0.21875-1.4766 0.38281-2.8984 0.60156-4.375-0.875 6.0703-2.5156 11.977-4.8672 17.609l1.6406-3.9375c-1.75 4.1016-3.8281 7.9844-6.2891 11.703-0.60156 0.875-1.2031 1.75-1.8594 2.625-1.4766 2.0781 2.2422-2.7891 1.0391-1.3125-0.32812 0.38281-0.60156 0.76562-0.875 1.0938-1.4219 1.75-2.9531 3.3906-4.5391 5.0312-1.5312 1.5312-3.1172 2.9531-4.7578 4.3203-0.38281 0.32812-0.76562 0.60156-1.0938 0.875-2.1328 1.8047 2.7891-1.9688 1.3672-1.0391-0.875 0.60156-1.75 1.2578-2.625 1.8594-3.7734 2.5703-7.8203 4.7031-11.977 6.5078l3.9375-1.6406c-5.6875 2.3516-11.539 3.9922-17.609 4.8672 1.4766-0.21875 2.8984-0.38281 4.375-0.60156-6.5078 0.875-13.125 0.875-19.633 0 1.4766 0.21875 2.8984 0.38281 4.375 0.60156-6.0703-0.875-11.977-2.5156-17.609-4.8672l3.9375 1.6406c-4.1016-1.75-7.9844-3.8281-11.703-6.2891-0.875-0.60156-1.75-1.2031-2.625-1.8594-2.0781-1.4766 2.7891 2.2422 1.3125 1.0391-0.38281-0.32812-0.76562-0.60156-1.0938-0.875-1.75-1.4219-3.3906-2.9531-5.0312-4.5391-1.5312-1.5312-2.9531-3.1172-4.3203-4.7578-0.32812-0.38281-0.60156-0.76562-0.875-1.0938-1.8047-2.1328 1.9688 2.7891 1.0391 1.3672-0.60156-0.875-1.2578-1.75-1.8594-2.625-2.5703-3.7734-4.7031-7.8203-6.5078-11.977l1.6406 3.9375c-2.3516-5.6875-3.9922-11.539-4.8672-17.609 0.21875 1.4766 0.38281 2.8984 0.60156 4.375-0.875-6.5078-0.875-13.125 0-19.633-0.21875 1.4766-0.38281 2.8984-0.60156 4.375 0.875-6.0703 2.5156-11.977 4.8672-17.609l-1.6406 3.9375c1.75-4.1016 3.8281-7.9844 6.2891-11.703 0.60156-0.875 1.2031-1.75 1.8594-2.625 1.4766-2.0781-2.2422 2.7891-1.0391 1.3125 0.32812-0.38281 0.60156-0.76562 0.875-1.0938 1.4219-1.75 2.9531-3.3906 4.5391-5.0312 1.5312-1.5312 3.1172-2.9531 4.7578-4.3203 0.38281-0.32812 0.76562-0.60156 1.0938-0.875 2.1328-1.8047-2.7891 1.9688-1.3672 1.0391 0.875-0.60156 1.75-1.2578 2.625-1.8594 3.7734-2.5703 7.8203-4.7031 11.977-6.5078l-3.9375 1.6406c5.6875-2.3516 11.539-3.9922 17.609-4.8672-1.4766 0.21875-2.8984 0.38281-4.375 0.60156 6.5078-0.875 13.125-0.875 19.633 0-1.4766-0.21875-2.8984-0.38281-4.375-0.60156 6.0703 0.875 11.977 2.5156 17.609 4.8672l-3.9375-1.6406c4.1016 1.75 7.9844 3.8281 11.703 6.2891 0.875 0.60156 1.75 1.2031 2.625 1.8594 2.0781 1.4766-2.7891-2.2422-1.3125-1.0391 0.38281 0.32812 0.76562 0.60156 1.0938 0.875 1.75 1.4219 3.3906 2.9531 5.0312 4.5391 1.5312 1.5312 2.9531 3.1172 4.3203 4.7578 0.32812 0.38281 0.60156 0.76562 0.875 1.0938 1.8047 2.1328-1.9688-2.7891-1.0391-1.3672 0.60156 0.875 1.2578 1.75 1.8594 2.625 2.5703 3.7734 4.7031 7.8203 6.5078 11.977l-1.6406-3.9375c2.3516 5.6875 3.9922 11.539 4.8672 17.609-0.21875-1.4766-0.38281-2.8984-0.60156-4.375 0.4375 3.2266 0.65625 6.5078 0.65625 9.7891 0.054687 8.5859 7.4922 16.789 16.406 16.406 8.8594-0.38281 16.461-7.2188 16.406-16.406-0.10938-17.445-5.25-35.273-15.531-49.492-10.883-15.094-25.211-26.086-42.656-32.539-32.867-12.141-72.844-1.3125-95.047 25.812-11.977 14.656-18.922 31.609-20.453 50.477-1.3672 17.336 3.1172 35.547 12.141 50.422 8.75 14.492 22.039 26.961 37.516 33.852 17.609 7.875 36.312 10.172 55.289 6.3984 33.797-6.7266 62.18-35.93 67.375-70.055 0.76562-4.9766 1.3672-9.8984 1.3672-14.93 0.054687-8.5859-7.6016-16.789-16.406-16.406-8.9141 0.49219-16.352 7.2734-16.406 16.461z"/>
  <path d="m396.65 414.15v19.523c0 6.6172 0.65625 13.562-0.16406 20.18 0.21875-1.4766 0.38281-2.8984 0.60156-4.375-0.21875 1.2031-0.54688 2.3516-0.98438 3.5 0.54688-1.3125 1.0938-2.625 1.6406-3.9375-0.10938 0.21875-1.2031 2.5703-1.3672 2.5156-0.10938-0.054688 3.2812-3.6641 0.76562-1.1484-1.5312 1.5312-1.75 0.38281 1.1484-0.76562-0.875 0.32812-1.6406 0.98438-2.5156 1.3672 1.3125-0.54687 2.625-1.0938 3.9375-1.6406-1.1484 0.4375-2.2969 0.76562-3.5 0.98437 1.4766-0.21875 2.8984-0.38281 4.375-0.60156-3.0625 0.38281-6.2344 0.16406-9.2422 0.16406h-19.797-66.172-80.336-69.234c-10.938 0-21.93 0.16406-32.922 0-0.875 0-1.6953-0.054687-2.5703-0.16406 1.4766 0.21875 2.8984 0.38281 4.375 0.60156-1.2031-0.21875-2.3516-0.54687-3.5-0.98437 1.3125 0.54687 2.625 1.0938 3.9375 1.6406-0.21875-0.10937-2.5703-1.2031-2.5156-1.3672 0.054687-0.10938 3.6641 3.2812 1.1484 0.76562-1.5312-1.5312-0.4375-1.75 0.76563 1.1484-0.32813-0.875-0.98438-1.6406-1.3672-2.5156l1.6406 3.9375c-0.4375-1.1484-0.76562-2.2969-0.98438-3.5 0.21875 1.4766 0.38281 2.8984 0.60156 4.375-0.76562-6.2344-0.16406-12.797-0.16406-19.086v-20.453c0-6.2344 0.38281-12.414 1.2031-18.594-0.21875 1.4766-0.38281 2.8984-0.60156 4.375 1.3125-9.4062 3.6641-18.648 7.2734-27.453l-1.6406 3.9375c2.0234-4.8125 4.4297-9.4609 7.2188-13.891 1.3125-2.1328 2.7891-4.1562 4.2656-6.1797 1.3672-1.8594-2.7891 3.5-0.92969 1.2031 0.38281-0.4375 0.76563-0.92969 1.1484-1.3672 0.82031-0.98438 1.6953-1.9688 2.5156-2.9531 3.3906-3.7734 7.1094-7.2734 11.047-10.445 0.49219-0.38281 0.92969-0.76562 1.4219-1.1484 0.82031-0.65625-3.6094 2.7344-1.4219 1.0938 1.0391-0.76562 2.1328-1.5312 3.1719-2.2969 2.1875-1.5312 4.4297-2.9531 6.6719-4.3203 5.25-3.1172 10.719-5.7969 16.297-8.2031-1.3125 0.54688-2.625 1.0938-3.9375 1.6406 15.367-6.3984 31.609-10.281 48.07-12.523-1.4766 0.21875-2.8984 0.38281-4.375 0.60156 25.594-3.4453 51.844-3.3906 77.438 0-1.4766-0.21875-2.8984-0.38281-4.375-0.60156 16.625 2.2422 33.031 6.1797 48.508 12.688l-3.9375-1.6406c6.125 2.625 12.031 5.5781 17.719 9.0781 1.5859 0.98438 3.1172 1.9688 4.6484 3.0078 0.82031 0.54688 1.5859 1.0938 2.4062 1.6953 0.27344 0.21875 0.54687 0.38281 0.76562 0.60156 1.3672 1.0391 1.0391 0.76562-0.98437-0.82031 2.5703 2.6797 5.8516 4.8672 8.5312 7.4922 2.0781 2.0781 4.1016 4.2109 6.0156 6.4531 0.49219 0.54687 0.92969 1.1484 1.4219 1.6953 1.8594 2.2969-2.5156-3.3906-0.76563-0.98438 0.875 1.2031 1.75 2.4062 2.5703 3.6094 3.5547 5.1953 6.5078 10.773 8.9688 16.57l-1.6406-3.9375c3.6641 8.8594 6.0156 18.156 7.2734 27.617-0.21875-1.4766-0.38281-2.8984-0.60156-4.375 0.65625 6.0703 0.98438 12.141 1.0391 18.211 0 8.5859 7.5469 16.789 16.406 16.406 8.8594-0.38281 16.461-7.2188 16.406-16.406-0.054688-24.172-5.4141-49-18.812-69.453-13.289-20.234-32.703-35.383-54.852-44.898-24.391-10.445-50.312-15.258-76.727-16.844-22.367-1.3125-44.734-0.21875-66.883 3.2266-35.109 5.5234-72.078 19.852-94.773 48.453-12.031 15.148-20.344 32.703-23.68 51.844-2.5156 14.438-2.5156 28.766-2.5156 43.312v18.977c0 1.6953 0 3.3359 0.16406 4.9766 1.0391 10.008 5.6875 18.211 13.891 23.898 6.9453 4.8125 14.766 5.1953 22.75 5.1953h52.117 82.086 81.43 50.094 4.0469c10.828-0.10938 20.344-5.25 26.469-14.109 4.7031-6.7812 5.1953-14.602 5.1953-22.477v-20.07-12.031c0-8.5859-7.5469-16.789-16.406-16.406-8.9141 0.4375-16.406 7.2188-16.406 16.406z"/>
  <path d="m326.1 175.77c0 3.7734-0.27344 7.6016-0.76562 11.32 0.21875-1.4766 0.38281-2.8984 0.60156-4.375-0.98438 7.0547-2.8984 13.891-5.6328 20.508 0.54687-1.3125 1.0938-2.625 1.6406-3.9375-2.0781 4.8672-4.5391 9.5156-7.4922 13.891-0.65625 0.98438-1.3672 1.9688-2.0781 2.8984-0.76562 0.98438-2.625 3.0078 0.82031-1.0391-0.38281 0.4375-0.76562 0.92969-1.1484 1.3672-1.6406 2.0234-3.4453 3.9375-5.3047 5.7969-1.75 1.75-3.6094 3.4453-5.5234 5.0312-0.16406 0.16406-1.4766 1.3672-1.6406 1.3672 0.21875 0 3.6641-2.7344 1.3125-1.0391-1.0391 0.76562-2.1328 1.5312-3.2266 2.2422-4.375 2.9531-9.0234 5.4141-13.891 7.4922 1.3125-0.54687 2.625-1.0938 3.9375-1.6406-6.5625 2.7344-13.453 4.5938-20.508 5.6328 1.4766-0.21875 2.8984-0.38281 4.375-0.60156-7.5469 0.98437-15.148 0.98437-22.695 0 1.4766 0.21875 2.8984 0.38281 4.375 0.60156-7.0547-0.98438-13.891-2.8984-20.508-5.6328 1.3125 0.54687 2.625 1.0938 3.9375 1.6406-4.8672-2.0781-9.5156-4.5391-13.891-7.4922-0.98438-0.65625-1.9688-1.3672-2.8984-2.0781-0.98438-0.76562-3.0078-2.625 1.0391 0.82031-0.4375-0.38281-0.92969-0.76562-1.3672-1.1484-2.0234-1.6406-3.9375-3.4453-5.7969-5.3047-1.75-1.75-3.4453-3.6094-5.0312-5.5234-0.16406-0.16406-1.3672-1.4766-1.3672-1.6406 0 0.21875 2.7344 3.6641 1.0391 1.3125-0.76562-1.0391-1.5312-2.1328-2.2422-3.2266-2.9531-4.375-5.4141-9.0234-7.4922-13.891 0.54687 1.3125 1.0938 2.625 1.6406 3.9375-2.7344-6.5625-4.5938-13.453-5.6328-20.508 0.21875 1.4766 0.38281 2.8984 0.60156 4.375-0.98437-7.5469-0.98437-15.148 0-22.695-0.21875 1.4766-0.38281 2.8984-0.60156 4.375 0.98438-7.0547 2.8984-13.891 5.6328-20.508-0.54687 1.3125-1.0938 2.625-1.6406 3.9375 2.0781-4.8672 4.5391-9.5156 7.4922-13.891 0.65625-0.98438 1.3672-1.9688 2.0781-2.8984 0.76562-0.98438 2.625-3.0078-0.82031 1.0391 0.38281-0.4375 0.76562-0.92969 1.1484-1.3672 1.6406-2.0234 3.4453-3.9375 5.3047-5.7969 1.75-1.75 3.6094-3.4453 5.5234-5.0312 0.16406-0.16406 1.4766-1.3672 1.6406-1.3672-0.21875 0-3.6641 2.7344-1.3125 1.0391 1.0391-0.76562 2.1328-1.5312 3.2266-2.2422 4.375-2.9531 9.0234-5.4141 13.891-7.4922-1.3125 0.54687-2.625 1.0938-3.9375 1.6406 6.5625-2.7344 13.453-4.5938 20.508-5.6328-1.4766 0.21875-2.8984 0.38281-4.375 0.60156 7.5469-0.98437 15.148-0.98437 22.695 0-1.4766-0.21875-2.8984-0.38281-4.375-0.60156 7.0547 0.98438 13.891 2.8984 20.508 5.6328-1.3125-0.54687-2.625-1.0938-3.9375-1.6406 4.8672 2.0781 9.5156 4.5391 13.891 7.4922 0.98438 0.65625 1.9688 1.3672 2.8984 2.0781 0.98438 0.76562 3.0078 2.625-1.0391-0.82031 0.4375 0.38281 0.92969 0.76562 1.3672 1.1484 2.0234 1.6406 3.9375 3.4453 5.7969 5.3047 1.75 1.75 3.4453 3.6094 5.0312 5.5234 0.16406 0.16406 1.3672 1.4766 1.3672 1.6406 0-0.21875-2.7344-3.6641-1.0391-1.3125 0.76562 1.0391 1.5312 2.1328 2.2422 3.2266 2.9531 4.375 5.4141 9.0234 7.4922 13.891-0.54687-1.3125-1.0938-2.625-1.6406-3.9375 2.7344 6.5625 4.5938 13.453 5.6328 20.508-0.21875-1.4766-0.38281-2.8984-0.60156-4.375 0.49219 3.8281 0.76562 7.6016 0.76562 11.375 0.054688 8.5859 7.4922 16.789 16.406 16.406 8.8594-0.38281 16.461-7.2188 16.406-16.406-0.10937-19.797-6.0156-39.922-17.555-56.055-12.195-17.062-28.547-29.641-48.234-36.914-37.461-13.836-82.742-1.5859-108.06 29.312-13.453 16.406-21.328 35.602-23.078 56.82-1.6406 19.961 3.5 40.797 13.945 57.859 9.9531 16.297 24.828 30.242 42.328 38.117 19.852 8.9688 41.18 11.594 62.562 7.3281 38.445-7.6562 70.711-40.742 76.617-79.625 0.875-5.5781 1.4766-11.156 1.5312-16.789 0.054688-8.5859-7.6016-16.789-16.406-16.406-8.9688 0.38281-16.406 7.1641-16.461 16.352z"/>
  <use x="70" y="568.203125" xlink:href="#v"/>
  <use x="72.007812" y="568.203125" xlink:href="#f"/>
  <use x="73.355469" y="568.203125" xlink:href="#a"/>
  <use x="75.210937" y="568.203125" xlink:href="#e"/>
  <use x="77.054688" y="568.203125" xlink:href="#d"/>
  <use x="78.363281" y="568.203125" xlink:href="#a"/>
  <use x="80.214844" y="568.203125" xlink:href="#k"/>
  <use x="83.125" y="568.203125" xlink:href="#j"/>
  <use x="85.082031" y="568.203125" xlink:href="#i"/>
  <use x="87.816406" y="568.203125" xlink:href="#c"/>
  <use x="89.445312" y="568.203125" xlink:href="#b"/>
  <use x="91.390625" y="568.203125" xlink:href="#e"/>
  <use x="93.238281" y="568.203125" xlink:href="#c"/>
  <use x="94.863281" y="568.203125" xlink:href="#b"/>
  <use x="96.8125" y="568.203125" xlink:href="#e"/>
  <use x="98.65625" y="568.203125" xlink:href="#h"/>
  <use x="100.601562" y="568.203125" xlink:href="#u"/>
  <use x="103.375" y="568.203125" xlink:href="#c"/>
  <use x="105" y="568.203125" xlink:href="#t"/>
  <use x="105.9375" y="568.203125" xlink:href="#h"/>
  <use x="107.882812" y="568.203125" xlink:href="#s"/>
  <use x="109.84375" y="568.203125" xlink:href="#b"/>
  <use x="70" y="570.9375" xlink:href="#r"/>
  <use x="71.191406" y="570.9375" xlink:href="#f"/>
  <use x="72.539062" y="570.9375" xlink:href="#g"/>
  <use x="74.417969" y="570.9375" xlink:href="#q"/>
  <use x="78.21875" y="570.9375" xlink:href="#d"/>
  <use x="79.523438" y="570.9375" xlink:href="#b"/>
  <use x="81.472656" y="570.9375" xlink:href="#a"/>
  <use x="84.277344" y="570.9375" xlink:href="#p"/>
  <use x="86.566406" y="570.9375" xlink:href="#g"/>
  <use x="88.445312" y="570.9375" xlink:href="#o"/>
  <use x="90.390625" y="570.9375" xlink:href="#h"/>
  <use x="93.289062" y="570.9375" xlink:href="#n"/>
  <use x="95.292969" y="570.9375" xlink:href="#f"/>
  <use x="96.644531" y="570.9375" xlink:href="#g"/>
  <use x="98.519531" y="570.9375" xlink:href="#m"/>
  <use x="99.457031" y="570.9375" xlink:href="#a"/>
  <use x="101.3125" y="570.9375" xlink:href="#l"/>
  <use x="102.933594" y="570.9375" xlink:href="#d"/>
 </g>
</svg>
